<svg width="144" height="40" viewBox="0 0 144 40" fill="none" xmlns="http://www.w3.org/2000/svg">
<g clip-path="url(#clip0)">
<path d="M25.8024 11.4188C7.71065 13.6553 -0.69732 26.9518 7.71063 32.9217C10.256 34.7295 14.4281 35.0345 14.4281 35.0345C13.2319 34.7899 8.88124 34.0528 11.0566 30.2561C12.5047 27.7271 19.1647 24.4419 26.6764 22.8279C30.6603 21.9701 31.2727 18.5356 30.8134 15.6285C30.4944 13.611 29.2247 10.9957 25.8024 11.4188Z" fill="#0C0B73"/>
<path d="M22.638 6.24339C22.0458 4.60683 17.3434 3.91358 15.4331 4.00855C8.49243 4.15733 -0.224805 8.99422 0.00442801 20.2792C0.119045 25.841 3.38562 29.5225 5.37231 31.2414C5.37549 31.2382 5.38186 31.2351 5.38504 31.2319C-0.724661 25.5182 4.46965 16.7579 10.4865 12.7931C18.3505 7.61117 23.2302 7.87679 22.638 6.24339Z" fill="#0C0B73"/>
<path d="M12.1832 33.9026C12.6572 34.835 16.9618 35.8016 21.1899 34.1015C26.5762 31.9352 28.0301 28.594 27.3493 27.531C26.1594 25.6724 10.1427 29.3448 12.1832 33.9026Z" fill="#0C0B73"/>
<path d="M109.772 23.9918C109.772 26.4328 109.772 27.2944 109.772 29.4483C108.48 29.4483 107.281 29.4483 105.984 29.4483C105.984 23.8496 105.984 18.8224 105.984 13.2223C105.984 11.3556 107.295 10.2069 109.044 10.2069C110.938 10.2069 112.384 10.2069 114.144 10.2069C116.145 10.2748 117.992 11.0253 119.39 12.5044C120.512 13.6949 121.138 15.089 121.138 17.0993C121.138 19.9235 119.724 22.8216 116.184 23.7046C115.364 23.9083 114.435 23.9918 113.27 23.9918C112.104 23.9918 111.133 23.9918 109.772 23.9918ZM109.695 20.5456C111.197 20.5456 112.579 20.5456 114.144 20.5456C115.785 20.5456 117.35 18.6789 117.35 17.0993C117.35 15.089 115.747 14.004 114.615 14.004C112.978 14.004 111.812 14.004 110.303 14.004C109.944 14.0061 109.742 14.3011 109.742 14.6682C109.736 16.5738 109.695 18.2481 109.695 20.5456Z" fill="#06C1D5"/>
<path d="M129.881 16.8121C129.881 18.1278 129.881 19.0573 129.881 20.2583C129.153 20.2583 128.861 20.2583 128.133 20.2583C126.384 20.2583 125.218 21.6943 125.218 23.1302C125.218 23.9224 125.223 24.1297 125.218 24.8533C125.208 26.3366 125.218 27.9437 125.218 29.4483C124.198 29.4483 122.549 29.4459 121.43 29.4483C121.43 28.5867 121.43 23.6365 121.43 22.5558C121.43 19.9712 123.324 16.8121 127.55 16.8121C127.987 16.8121 128.57 16.8121 129.881 16.8121Z" fill="#06C1D5"/>
<path fill-rule="evenodd" clip-rule="evenodd" d="M137.022 29.4483C140.643 29.4483 143.579 26.5553 143.579 22.9867C143.579 19.418 140.643 16.525 137.022 16.525C133.4 16.525 130.464 19.418 130.464 22.9867C130.464 26.5553 133.4 29.4483 137.022 29.4483ZM137.022 26.0021C138.712 26.0021 140.082 24.652 140.082 22.9867C140.082 21.3213 138.712 19.9712 137.022 19.9712C135.332 19.9712 133.962 21.3213 133.962 22.9867C133.962 24.652 135.332 26.0021 137.022 26.0021Z" fill="#06C1D5"/>
<path d="M59.9365 29.4483C58.661 29.4483 57.3761 29.4483 56.1478 29.4483C56.1478 23.0142 56.1478 16.641 56.1478 10.2069C57.4593 10.2069 58.7083 10.2069 59.9365 10.2069C59.9365 11.0968 59.9365 17.5153 59.9365 17.9609C61.1023 16.0942 65.4738 16.0942 67.0767 17.8173C68.1039 18.9215 68.6796 20.4566 68.6796 22.5558C68.6796 25.7149 68.6796 26.5316 68.6796 29.4483C67.2224 29.4483 66.3481 29.4483 64.8909 29.4483C64.8909 27.0653 64.9239 24.7024 64.8909 22.3196C64.878 21.388 64.3115 20.3898 63.288 20.1148C61.6851 19.684 59.9348 20.402 59.9348 22.5997C59.9088 24.8935 59.9365 27.1544 59.9365 29.4483Z" fill="#0C0B73"/>
<path d="M44.438 13.6531C42.295 13.6531 40.4509 13.6531 38.3702 13.6531C38.3702 12.416 38.3702 11.4207 38.3702 10.2069C43.82 10.2069 49.2087 10.2069 54.6907 10.2069C54.6907 11.3783 54.6907 12.4117 54.6907 13.6531C52.6529 13.6531 49.5381 13.6531 48.5181 13.6531C48.5181 17.2429 48.5181 24.5661 48.5181 29.4469C47.2018 29.4469 45.8088 29.4469 44.4904 29.4469C44.4904 24.2542 44.438 18.9073 44.438 13.6531Z" fill="#0C0B73"/>
<path d="M88.7879 29.4483C87.5323 29.4483 86.2472 29.4483 85.0001 29.4483C85.0001 27.2334 85.0116 24.8846 85.0001 22.6504C85.0001 21.12 84.1258 19.9712 82.3772 19.9712C80.6286 19.9712 79.7543 21.12 79.7543 22.6504C79.7332 24.9419 79.7543 27.1584 79.7543 29.4483C78.5324 29.4483 77.1642 29.4483 75.9656 29.4483C75.9656 26.9184 75.9672 24.997 75.9672 21.8379C75.9672 19.3969 78.2971 16.525 82.3772 16.525C86.7487 16.525 88.7605 19.3969 88.7605 21.7968C88.7605 24.1967 88.7879 26.9638 88.7879 29.4483Z" fill="#0C0B73"/>
<path d="M90.5374 10.2069C91.8246 10.2069 93.0543 10.2069 94.326 10.2069C94.326 16.6249 94.326 23.0175 94.326 29.4483C93.0698 29.4483 91.8268 29.4483 90.5374 29.4483C90.5374 23.0451 90.5374 16.6525 90.5374 10.2069Z" fill="#0C0B73"/>
<path d="M103.652 16.8121C102.195 18.6788 101.147 20.0088 99.7314 21.6943C99.1283 22.4122 99.0026 22.7826 99.7314 23.7046C101.321 25.7149 102.327 26.8636 104.235 29.4483C102.948 29.4483 100.928 29.4483 99.44 29.4483C98.1528 27.7032 96.3341 25.3471 95.3599 23.9917C95.0811 23.6039 94.9248 23.2319 94.9101 22.843C94.8905 22.3247 95.1225 21.7762 95.6513 21.1199C96.3714 20.2262 97.8667 18.5352 99.44 16.8121C100.87 16.8121 102.151 16.8121 103.652 16.8121Z" fill="#0C0B73"/>
<rect x="70.4282" y="16.8121" width="3.78868" height="12.6361" fill="#0C0B73"/>
<ellipse cx="72.3226" cy="12.3608" rx="2.18578" ry="2.15388" fill="#0C0B73"/>
</g>
<defs>
<clipPath id="clip0">
<path d="M0 0H143.579V40H0V0Z" fill="white"/>
</clipPath>
</defs>
</svg>
