<svg width="341" height="95" viewBox="0 0 341 95" fill="none" xmlns="http://www.w3.org/2000/svg">
<path d="M61.2806 27.1195C18.3126 32.4311 -1.65629 64.0105 18.3126 78.189C24.3578 82.4825 34.2665 83.2068 34.2665 83.2068C31.4257 82.6258 21.0928 80.8752 26.2592 71.8581C29.6985 65.8517 45.516 58.0494 63.3562 54.2162C72.818 52.1789 74.2724 44.0219 73.1816 37.1176C72.424 32.3261 69.4086 26.1147 61.2806 27.1195Z" fill="white"/>
<path d="M53.7653 14.8281C52.3589 10.9412 41.1905 9.29476 36.6536 9.5203C20.1695 9.87365 -0.533913 21.3613 0.0105165 48.1632C0.282731 61.3724 8.04085 70.116 12.7592 74.1983C12.7668 74.1908 12.7819 74.1832 12.7895 74.1757C-1.72107 60.6056 10.6154 39.7999 24.9054 30.3836C43.5824 18.0765 55.1718 18.7074 53.7653 14.8281Z" fill="white"/>
<path d="M28.9352 80.5186C30.061 82.7331 40.2843 85.0288 50.3263 80.9911C63.1186 75.846 66.5718 67.9107 64.9548 65.3862C62.1288 60.9719 24.089 69.6939 28.9352 80.5186Z" fill="white"/>
<path d="M260.709 56.9805C260.709 62.778 260.709 64.8242 260.709 69.9397C257.639 69.9397 254.791 69.9397 251.711 69.9397C251.711 56.6428 251.711 44.7034 251.711 31.4031C251.711 26.9697 254.826 24.2415 258.979 24.2415C263.478 24.2415 266.912 24.2414 271.092 24.2415C275.845 24.4027 280.231 26.1852 283.551 29.698C286.217 32.5255 287.704 35.8365 287.704 40.611C287.704 47.3182 284.345 54.2014 275.937 56.2984C273.989 56.7823 271.784 56.9805 269.015 56.9805C266.246 56.9805 263.942 56.9805 260.709 56.9805ZM260.525 48.7957C264.092 48.7957 267.376 48.7957 271.092 48.7957C274.989 48.7957 278.705 44.3623 278.705 40.611C278.705 35.8365 274.899 33.2595 272.21 33.2595C268.323 33.2595 265.554 33.2595 261.968 33.2595C261.117 33.2645 260.637 33.9651 260.637 34.837C260.622 39.3628 260.525 43.3392 260.525 48.7957Z" fill="#06C1D5"/>
<path d="M308.468 39.929C308.468 43.0537 308.468 45.2611 308.468 48.1137C306.738 48.1137 306.046 48.1137 304.315 48.1137C300.162 48.1137 297.394 51.524 297.394 54.9343C297.394 56.8159 297.404 57.3081 297.394 59.0267C297.368 62.5496 297.394 66.3665 297.394 69.9397C294.971 69.9397 291.054 69.9341 288.396 69.9397C288.396 67.8936 288.396 56.1368 288.396 53.5702C288.396 47.4317 292.895 39.929 302.931 39.929C303.969 39.929 305.354 39.929 308.468 39.929Z" fill="#06C1D5"/>
<path fill-rule="evenodd" clip-rule="evenodd" d="M325.426 69.9397C334.027 69.9397 341 63.0688 341 54.5932C341 46.1177 334.027 39.2468 325.426 39.2468C316.825 39.2468 309.853 46.1177 309.853 54.5932C309.853 63.0688 316.825 69.9397 325.426 69.9397ZM325.426 61.7548C329.44 61.7548 332.694 58.5484 332.694 54.5932C332.694 50.6379 329.44 47.4315 325.426 47.4315C321.413 47.4315 318.159 50.6379 318.159 54.5932C318.159 58.5484 321.413 61.7548 325.426 61.7548Z" fill="#06C1D5"/>
<path d="M142.349 69.9397C139.32 69.9397 136.268 69.9397 133.351 69.9397C133.351 54.6588 133.351 39.5224 133.351 24.2415C136.466 24.2415 139.432 24.2415 142.349 24.2415C142.349 26.3548 142.349 41.5988 142.349 42.6572C145.118 38.2238 155.5 38.2238 159.307 42.3161C161.747 44.9386 163.114 48.5844 163.114 53.5702C163.114 61.0729 163.114 63.0126 163.114 69.9397C159.653 69.9397 157.577 69.9397 154.116 69.9397C154.116 64.2801 154.194 58.6683 154.116 53.0091C154.085 50.7966 152.74 48.4259 150.309 47.7726C146.502 46.7495 142.345 48.4547 142.345 53.6743C142.283 59.1221 142.349 64.4917 142.349 69.9397Z" fill="white"/>
<path d="M105.54 32.4262C100.45 32.4262 96.0708 32.4262 91.1291 32.4262C91.1291 29.488 91.1291 27.1243 91.1291 24.2415C104.072 24.2415 116.871 24.2415 129.89 24.2415C129.89 27.0235 129.89 29.4779 129.89 32.4262C125.051 32.4262 117.653 32.4262 115.23 32.4262C115.23 40.952 115.23 58.3446 115.23 69.9363C112.104 69.9363 108.796 69.9363 105.665 69.9363C105.665 57.6038 105.54 44.9049 105.54 32.4262Z" fill="white"/>
<path d="M210.871 69.9397C207.889 69.9397 204.837 69.9397 201.875 69.9397C201.875 64.6791 201.902 59.1008 201.875 53.7945C201.875 50.1598 199.799 47.4316 195.646 47.4316C191.493 47.4316 189.416 50.1598 189.416 53.7945C189.366 59.2368 189.416 64.501 189.416 69.9397C186.514 69.9397 183.265 69.9397 180.418 69.9397C180.418 63.9311 180.422 59.3677 180.422 51.865C180.422 46.0675 185.955 39.2468 195.646 39.2468C206.028 39.2468 210.806 46.0675 210.806 51.7673C210.806 57.467 210.871 64.0388 210.871 69.9397Z" fill="white"/>
<path d="M215.026 24.2415C218.083 24.2415 221.004 24.2415 224.024 24.2415C224.024 39.4843 224.024 54.6667 224.024 69.9397C221.041 69.9397 218.089 69.9397 215.026 69.9397C215.026 54.7321 215.026 39.5497 215.026 24.2415Z" fill="white"/>
<path d="M246.174 39.929C242.713 44.3624 240.225 47.5211 236.862 51.524C235.43 53.2292 235.131 54.1089 236.862 56.2985C240.636 61.0729 243.026 63.8012 247.558 69.9398C244.501 69.9398 239.705 69.9398 236.17 69.9398C233.113 65.7953 228.794 60.1995 226.48 56.9805C225.818 56.0594 225.446 55.176 225.411 54.2523C225.365 53.0212 225.916 51.7186 227.172 50.1599C228.882 48.0374 232.433 44.0213 236.17 39.929C239.567 39.929 242.61 39.929 246.174 39.929Z" fill="white"/>
<rect x="167.267" y="39.929" width="8.99811" height="30.0108" fill="white"/>
<ellipse cx="171.766" cy="29.3569" rx="5.19122" ry="5.11547" fill="white"/>
</svg>
